<svg id="_0043_time" xmlns="http://www.w3.org/2000/svg" viewBox="0 0 500 500" data-imageid="time-39-491b4" imageName="Time" class="illustrations_image" style="width: 181px;"><defs><style>.cls-1_time-39-491b4,.cls-2_time-39-491b4{fill:#fff;}.cls-3_time-39-491b4{fill:#f4a28c;}.cls-4_time-39-491b4{fill:#a5a5a5;}.cls-5_time-39-491b4{opacity:.03;}.cls-5_time-39-491b4,.cls-6_time-39-491b4{fill:#000001;}.cls-7_time-39-491b4{fill:#e6e6e6;}.cls-8_time-39-491b4{fill:#ce8172;opacity:.31;}.cls-2_time-39-491b4{opacity:.46;}.cls-9_time-39-491b4{fill:#24285b;}.cls-6_time-39-491b4{opacity:.08;}.cls-10_time-39-491b4{fill:#ffd200;}.cls-11_time-39-491b4{fill:#68e1fd;}</style></defs><ellipse id="sd_time-39-491b4" class="cls-5_time-39-491b4" cx="275.24" cy="419.78" rx="209.27" ry="34.87"/><g id="houglass_time-39-491b4"><rect class="cls-4_time-39-491b4" x="192.82" y="45.34" width="248.72" height="43.64"/><rect class="cls-4_time-39-491b4" x="193.79" y="377.24" width="248.72" height="43.64"/><path class="cls-7_time-39-491b4" d="m351.8,229.5c81.26-23.18,72.36-140.52,72.36-140.52h-216.1s-5.59,111.03,74.73,138.43c4.47,1.53,4.32,8.02-.22,9.31-81.26,23.18-72.36,140.52-72.36,140.52h216.1s5.59-111.03-74.73-138.43c-4.47-1.53-4.32-8.02.22-9.31Z"/><path class="cls-6_time-39-491b4" d="m382.71,348.15c-15.83-2.55-24.38-25.07-50.43-31.19l3-106.15c25.3-4.32,44.39-20.1,57.1-53.58,4.73-12.45-5.42-25.63-18.63-23.9-.18.02-.36.05-.55.08-18.35,2.72-20.39,26.5-46.89,19.03-13.71-3.87-30.52-13.19-46.46-16.59-23.29-4.96-41.47,19.63-29.92,40.46,7.91,14.27,22.15,30.02,47.16,33.89,2.01.31,3.98.57,5.94.81l4.96,105.14c-2.61.34-5.33.81-8.19,1.42-24.2,5.21-41.63,11.93-53.48,17.75-12.65,6.21-20.59,19.13-20.59,33.22h183.48s-5.44-16.99-26.5-20.39Zm-54.36-136.46v104.5c-2.27-.36-4.67-.6-7.21-.71l-2.96-103.43c3.48.04,6.87-.07,10.16-.36Z"/></g><g id="person_time-39-491b4"><path class="cls-11_time-39-491b4 targetColor" d="m163.1,173.55s-48.11,12.78-34.35,78.76c13.76,65.98-28.64,63.4-64.73,57.66l-2.29,16.91s94.52,29.22,107.13-53.86c12.62-83.08-5.75-99.47-5.75-99.47Z" style="fill: rgb(104, 225, 253);"/><path class="cls-2_time-39-491b4" d="m163.1,173.55s-48.11,12.78-34.35,78.76c13.76,65.98-28.64,63.4-64.73,57.66l-2.29,16.91s94.52,29.22,107.13-53.86c12.62-83.08-5.75-99.47-5.75-99.47Z"/><polygon class="cls-7_time-39-491b4" points="15.49 211.52 15.49 251.97 41.63 251.97 47.34 268.07 54.1 251.97 80.23 251.97 80.23 211.52 15.49 211.52"/><path class="cls-3_time-39-491b4" d="m166.71,128.09s-2.54,9.17-2.13,15.66c.17,2.63,2.48,4.66,5.11,4.45,3.27-.26,7.61-1.55,9.57-6.3l4.32-7.65s2.54-4.89-2.03-9.66c-4.57-4.77-13.56-2.16-14.83,3.5Z"/><polygon class="cls-3_time-39-491b4" points="181.77 136.15 189.25 166.42 172.27 169.35 173.61 146.73 181.77 136.15"/><path class="cls-3_time-39-491b4" d="m165.4,133.95l-3.28,3.12c-.81.77-.54,2.12.5,2.52l3.45,1.34-.68-6.98Z"/><path class="cls-8_time-39-491b4" d="m173.58,147.37s5.79-2.67,7.38-5.04c0,0-.33,12.45-8.03,16.08l.66-11.03Z"/><path class="cls-3_time-39-491b4" d="m176.17,136.72s.74-3.59,3.39-2.81,1.62,5.97-2.15,5.77l-1.24-2.97Z"/><path class="cls-9_time-39-491b4" d="m187.17,132.13l-1.98,3.43s-2.4,8.8-8.25,13.35c-5.86,4.55-14.1,3.61-14.8-2.58-.81-7.1,3.95-5.4,10.31-5.69,6.37-.3,5.39-8.83,5.39-8.83-2.8.04-4.73-1.46-6.02-3.15-1.79-2.36-4.08-4.27-6.81-5.42-5.64-2.38,1.24-9.77,1.24-9.77-3.77-2.09-.88-6.48,2.77-7.83s4.69,2.94,7.47,3.76c2.77.82,1.65-3.6,7.03-2.51,5.38,1.09,2.46,5.06,5.69,7.96,0,0,3.72-2.83,6.58,3.62,1.64,3.68.79,5.41-.85,6.37-3.14,1.82-5.96,4.16-7.77,7.3Z"/><rect class="cls-4_time-39-491b4" x="142.88" y="349.49" width="85.22" height="71.38"/><rect class="cls-7_time-39-491b4" x="173.12" y="349.49" width="85.22" height="71.38"/><path class="cls-11_time-39-491b4 targetColor" d="m171.59,406.49s-2.36,6.57-8.3,7.07c-5.93.5-7.49,6.3-2.15,7.82,5.34,1.51,19.1-5.35,19.1-5.35l-.39-8.56-8.26-.98Z" style="fill: rgb(104, 225, 253);"/><path class="cls-11_time-39-491b4 targetColor" d="m172.27,169.35l16.98-2.93s56.47.09,66.36,19.42c9.88,19.34,7.81,91.33-24.85,150.42l-66.88,1.94s3.71-43.4-8.75-67.04c-12.46-23.63-51.2-73.85,17.16-101.81Z" style="fill: rgb(104, 225, 253);"/><path class="cls-9_time-39-491b4" d="m230.75,336.26l-32.72-4.93c-20.24-3.05-37.91,13.81-35.82,34.17l4.27,41.56h16.05l-1.39-38.91c-.33-9.28,7.89-16.57,17.05-15.09,13.92,2.24,31.18,1.27,32.55-16.8Z"/><path class="cls-11_time-39-491b4 targetColor" d="m138.29,406.49s-2.36,6.57-8.3,7.07c-5.93.5-7.49,6.3-2.15,7.82,5.34,1.51,19.1-5.35,19.1-5.35l-.39-8.56-8.26-.98Z" style="fill: rgb(104, 225, 253);"/><path class="cls-6_time-39-491b4" d="m222.03,184.04s-23.37,15.07-17.93,44.87c5.44,29.79,29.38,84.5-19.83,74.91l2.93,22.78,33.41-3.15,27.04-18.05,6.59-50.08-32.2-71.28Z"/><path class="cls-9_time-39-491b4" d="m197.45,336.26l-32.72-4.93c-20.24-3.05-37.91,13.81-35.82,34.17l4.27,41.56h16.05l-1.39-38.91c-.33-9.28,7.89-16.57,17.05-15.09,13.92,2.24,31.18,1.27,32.55-16.8Z"/><path class="cls-11_time-39-491b4 targetColor" d="m218.49,193.77c1.57-17.17,22.89-24.49,34.3-11.55,5.42,6.15,9.76,15.17,10.62,28.38,2.58,39.89,34.74,157.6-91.13,120.44l3.2-14.81s38.52,8.59,58.72-10.74c16.83-16.11-19.67-68.28-15.69-111.72Z" style="fill: rgb(104, 225, 253);"/><path class="cls-2_time-39-491b4" d="m218.49,193.77c1.57-17.17,22.89-24.49,34.3-11.55,5.42,6.15,9.76,15.17,10.62,28.38,2.58,39.89,34.74,157.6-91.13,120.44l3.2-14.81s38.52,8.59,58.72-10.74c16.83-16.11-19.67-68.28-15.69-111.72Z"/><polygon class="cls-10_time-39-491b4" points="137.2 333.55 116.53 276.89 177.36 276.89 189.98 330.18 205.07 332.76 205.07 340.06 137.2 333.55"/><circle class="cls-1_time-39-491b4" cx="154.65" cy="302.67" r="6.15"/><polygon class="cls-6_time-39-491b4" points="125.49 301.45 177.43 337.41 137.2 333.55 125.49 301.45"/><path class="cls-11_time-39-491b4 targetColor" d="m166.08,172.08s-1.79-5.56,6.19-9.64c7.98-4.08,23.45-9.7,28.82,4.82,0,0-17.39,11.23-35.02,4.82Z" style="fill: rgb(104, 225, 253);"/><path class="cls-2_time-39-491b4" d="m166.08,172.08s-1.79-5.56,6.19-9.64c7.98-4.08,23.45-9.7,28.82,4.82,0,0-17.39,11.23-35.02,4.82Z"/><path class="cls-3_time-39-491b4" d="m64.01,309.97s-11.17-9.16-15.47-3.14c-4.3,6.02,13.18,16.33,13.18,16.33l2.29-13.19Z"/><rect class="cls-10_time-39-491b4" x="36.13" y="286.22" width="30.6" height="17.98" transform="translate(223.81 50.1) rotate(45)"/><path class="cls-3_time-39-491b4" d="m181.65,133.01s4.62-2.73,6.34.94c1.72,3.68-3.44,6.56-6.94,4.32,0,0,1.36-2.36.61-5.26Z"/><circle class="cls-4_time-39-491b4" cx="32.21" cy="230.82" r="4.89"/><circle class="cls-4_time-39-491b4" cx="47.32" cy="230.82" r="4.89"/><circle class="cls-4_time-39-491b4" cx="62.04" cy="230.82" r="4.89"/></g></svg>